<svg xmlns="http://www.w3.org/2000/svg" xmlns:xlink="http://www.w3.org/1999/xlink" id="Layer_1" width="332.537" height="87.333" x="0" y="0" enable-background="new 0 149.1 332.537 87.333" version="1.1" viewBox="0 149.1 332.537 87.333" xml:space="preserve"><title>logo</title><desc>Created with Sketch.</desc><g><g id="Group-4" transform="translate(153.000000, 26.000000)"><path id="Shape" fill="#434351" d="M-77.003,170.276v-22.754h2.16c1.809,0,3.265,1.457,3.265,3.214v10.146 c3.516-3.114,6.479-4.37,10.448-4.42c7.584-0.151,14.165,5.475,14.818,13.059c0.753,9.042-5.827,15.822-14.416,15.822 C-70.172,185.295-77.003,179.468-77.003,170.276z M-71.679,172.084c0.552,4.722,5.022,8.589,9.794,8.69 c6.178,0.1,10.397-3.918,10.397-9.896s-4.169-9.895-10.146-9.895C-68.063,160.984-72.433,165.604-71.679,172.084z"/><path id="Shape_1_" fill="#434351" d="M-37.372,156.965v4.068c3.416-3.767,5.424-4.772,9.393-4.772 c1.155,0,2.311,0.101,3.466,0.302v5.375c-1.206-0.352-2.462-0.502-3.717-0.502c-2.863,0-5.274,0.955-7.083,2.712 c-1.557,1.558-2.009,2.763-2.009,5.224v15.019h-5.625v-27.425H-37.372z"/><path id="Shape_2_" fill="#434351" d="M-23.208,166.057c0.301-2.662,0.804-4.119,1.959-5.475c2.31-2.813,6.429-4.271,12.307-4.271 c4.671,0,8.036,0.704,10.397,2.261c1.959,1.255,2.763,3.164,2.763,6.479v12.156c0,2.662,0.703,3.616,2.611,3.566 c0.402,0,0.854-0.05,1.256-0.101v3.666c-0.955,0.302-1.959,0.453-2.913,0.453c-3.516,0-5.124-1.055-6.229-4.119 c-3.466,3.165-7.032,4.521-12.156,4.521c-6.832,0-11.05-3.114-11.05-8.188c-0.051-2.862,1.657-5.525,4.32-6.68 c2.059-0.904,3.315-1.155,9.242-1.758c5.073-0.502,5.927-0.603,7.384-1.055c1.557-0.502,2.261-1.356,2.261-2.711 c0-2.964-2.461-4.27-7.635-4.27c-4.873,0-7.435,0.954-8.438,3.465c-0.503,1.255-1.708,2.109-3.064,2.109L-23.208,166.057z M-1.056,170.728c-3.566,1.055-7.183,1.708-10.9,2.009c-5.023,0.502-6.58,1.457-6.58,3.918c0,2.763,2.311,4.219,6.831,4.219 c3.717,0,6.581-0.954,8.589-2.763c1.607-1.506,2.009-2.561,2.009-5.173L-1.056,170.728L-1.056,170.728z"/><path id="Shape_3_" fill="#434351" d="M21.597,184.34h-1.456c-1.255,0-2.411-0.703-2.963-1.857L5.122,156.965h3.365 c1.959,0,3.717,1.105,4.521,2.913l8.036,18.334l8.338-18.384c0.805-1.758,2.562-2.863,4.521-2.863h3.064l-12.357,25.567 C24.008,183.687,22.853,184.39,21.597,184.34z"/><path id="Shape_4_" fill="#434351" d="M40.735,172.285c0.552,5.274,4.722,8.539,10.849,8.539c3.516,0,6.128-1.055,7.736-3.114 c0.954-1.205,2.411-1.858,3.917-1.858h3.265c-2.863,6.178-7.887,9.242-15.42,9.242c-9.394,0-15.773-5.726-15.773-14.265 c0-8.539,6.48-14.567,15.873-14.567c6.781,0,12.256,3.064,14.466,8.188c0.954,2.362,1.356,4.421,1.356,7.836H40.735z M61.329,168.016c-1.256-4.822-5.023-7.535-10.197-7.535s-8.94,2.713-10.247,7.535H61.329z"/></g><g id="build-icons_x2F_Stable"><g id="Logo" transform="translate(10.381810, 0.000000)"><linearGradient id="Head_1_" x1="461.421" x2="462.057" y1="324.707" y2="324.707" gradientTransform="matrix(88.8937 0 0 104.3654 -41023.5039 -33694.7148)" gradientUnits="userSpaceOnUse"><stop offset="0" style="stop-color:#f50"/><stop offset=".41" style="stop-color:#f50"/><stop offset=".582" style="stop-color:#ff2000"/><stop offset="1" style="stop-color:#ff2000"/></linearGradient><path id="Head" fill="url(#Head_1_)" d="M48.327,176.235l1.557-3.817c0,0-1.959-2.11-4.37-4.521 c-2.411-2.412-7.484-1.005-7.484-1.005l-5.777-6.53H22.107H11.91l-5.776,6.58c0,0-5.073-1.407-7.484,1.005 c-2.411,2.411-4.37,4.521-4.37,4.521l1.557,3.817l-1.958,5.626c0,0,5.827,22,6.479,24.713c1.356,5.274,2.26,7.333,6.078,10.046 s10.699,7.333,11.854,8.037c1.105,0.702,2.562,1.908,3.817,1.908c1.255,0,2.662-1.206,3.817-1.908 c1.105-0.704,8.037-5.375,11.854-8.037s4.722-4.722,6.078-10.046c0.703-2.712,6.479-24.713,6.479-24.713L48.327,176.235z"/><path id="Face" fill="#FFF" d="M36.422,171.111c0,0,7.434,8.991,7.434,10.95c0,1.959-0.954,2.411-1.908,3.416 c-0.955,1.004-5.073,5.375-5.576,5.927c-0.553,0.553-1.607,1.407-1.005,2.963c0.653,1.508,1.607,3.466,0.552,5.475 c-1.054,1.959-2.862,3.315-4.018,3.064c-1.156-0.201-3.918-1.657-4.923-2.311c-1.004-0.653-4.169-3.265-4.169-4.269 s3.315-2.813,3.917-3.215c0.603-0.402,3.366-2.009,3.416-2.612c0.05-0.603,0.05-0.803-0.804-2.361 c-0.804-1.556-2.311-3.616-2.059-4.972c0.251-1.356,2.612-2.06,4.319-2.712c1.708-0.653,4.973-1.859,5.375-2.06 c0.402-0.201,0.302-0.352-0.954-0.502c-1.256-0.1-4.722-0.603-6.33-0.151c-1.607,0.453-4.269,1.105-4.521,1.457 c-0.201,0.352-0.401,0.352-0.201,1.607c0.201,1.206,1.407,7.133,1.507,8.188c0.1,1.055,0.352,1.758-0.803,2.009 c-1.105,0.251-3.014,0.704-3.667,0.704s-2.562-0.453-3.667-0.704s-0.904-0.954-0.804-2.009c0.1-1.055,1.256-6.932,1.507-8.188 c0.201-1.205,0.05-1.255-0.201-1.607c-0.201-0.352-2.913-1.004-4.521-1.457c-1.607-0.452-5.073,0-6.329,0.151 c-1.256,0.1-1.356,0.302-0.954,0.502s3.667,1.407,5.375,2.06c1.708,0.652,4.068,1.356,4.32,2.712 c0.251,1.356-1.206,3.416-2.06,4.972c-0.803,1.558-0.854,1.708-0.803,2.361c0.05,0.604,2.813,2.21,3.415,2.612 c0.603,0.401,3.918,2.21,3.918,3.215s-3.165,3.616-4.169,4.269c-1.005,0.653-3.717,2.06-4.922,2.311 c-1.156,0.201-2.964-1.105-4.019-3.064c-1.055-1.959-0.101-3.917,0.552-5.475c0.653-1.506-0.452-2.36-1.004-2.963 c-0.402-0.602-4.471-4.973-5.425-5.927c-0.954-1.005-1.858-1.507-1.858-3.416s7.434-10.95,7.434-10.95s6.279,1.205,7.133,1.205 s2.662-0.703,4.37-1.255c1.708-0.553,2.813-0.553,2.813-0.553s1.105,0,2.813,0.553c1.708,0.552,3.516,1.255,4.37,1.255 S36.422,171.111,36.422,171.111z M30.847,205.519c0.452,0.301,0.201,0.854-0.251,1.104c-0.402,0.301-6.078,4.671-6.58,5.174 c-0.553,0.501-1.356,1.255-1.909,1.255c-0.553,0-1.356-0.804-1.909-1.255c-0.553-0.502-6.179-4.873-6.58-5.174 c-0.402-0.301-0.704-0.854-0.251-1.104c0.452-0.303,1.909-1.005,3.868-2.06c2.009-1.054,4.47-1.908,4.872-1.908 s2.863,0.854,4.872,1.908C28.938,204.514,30.345,205.267,30.847,205.519z"/><g id="Top-Head"><linearGradient id="path-3_2_" x1="460.799" x2="461.42" y1="330.578" y2="330.578" gradientTransform="matrix(73.7817 0 0 18.8056 -33998.8164 -6050.3945)" gradientUnits="userSpaceOnUse"><stop offset="0" style="stop-color:#ff452a"/><stop offset="1" style="stop-color:#ff2000"/></linearGradient><path id="path-3_1_" fill="url(#path-3_2_)" d="M38.03,166.942l-5.777-6.58H22.107H11.91l-5.776,6.58 c0,0-5.073-1.407-7.484,1.005c0,0,6.781-0.603,9.092,3.165c0,0,6.278,1.205,7.132,1.205s2.663-0.703,4.371-1.255 c1.708-0.553,2.813-0.553,2.813-0.553s1.105,0,2.813,0.553c1.707,0.552,3.516,1.255,4.37,1.255c0.854,0,7.132-1.205,7.132-1.205 c2.311-3.767,9.092-3.165,9.092-3.165C43.103,165.535,38.03,166.942,38.03,166.942"/></g></g></g></g><line x1="242.005" x2="242.005" y1="166.339" y2="220.688" fill="none" stroke="#8E8E8E" stroke-miterlimit="10" stroke-width="1.269"/><g><g transform="translate(2.421429, 9.685714)"><path fill="#9E1F63" d="M294.093,154.788v20.293l12.156,21.046l17.63,10.247c0.15-0.301,0.15-0.652-0.101-1.104l-14.415-24.964 l-14.417-24.864C294.697,154.989,294.395,154.788,294.093,154.788"/><path fill="#FF4724" d="M264.307,206.373l17.631-10.247l12.155-21.046v-20.293c-0.301,0-0.652,0.201-0.903,0.653l-14.416,24.964 l-14.416,24.965C264.158,205.721,264.158,206.122,264.307,206.373"/><path fill="#662D91" d="M323.83,206.373l-17.58-10.247h-24.312l-17.631,10.247c0.151,0.302,0.503,0.453,1.005,0.453h57.563 C323.328,206.826,323.679,206.675,323.83,206.373"/><polygon fill="#FFF" points="281.938 196.127 306.249 196.127 294.093 175.081"/></g></g></svg>