<?xml version="1.0" encoding="UTF-8"?>
<svg id="Layer_1" xmlns="http://www.w3.org/2000/svg" viewBox="0 0 223.68 132.86">
  <defs>
    <style>
      .cls-1 {
        fill: #1a305c;
      }

      .cls-2 {
        fill: #1a2f5a;
      }

      .cls-3 {
        fill: #e3e2e8;
      }

      .cls-4 {
        fill: #0a8dc6;
      }
    </style>
  </defs>
  <path class="cls-2" d="M157.17,132.86c-14.23,0-27.77-4.45-39.29-12.95-.1-.07-1.07-.8-1.45-1.1-7.65-5.55-16.78-8.32-26.3-7.97-6.37.24-12.36,1.78-17.82,4.6-6.91,3.58-14.79,5.47-22.77,5.47C22.22,120.91,0,98.69,0,71.38S22.22,21.86,49.53,21.86c5.69,0,11.28.96,16.62,2.87.31.11,1.95.73,2.63,1.02,5.25,1.85,10.74,2.69,16.31,2.48,10.51-.39,20.55-4.53,28.27-11.66C124.84,6.46,139.54.61,154.79.05c36.61-1.36,67.49,27.32,68.84,63.92,1.36,36.6-27.32,67.49-63.92,68.84-.85.03-1.7.05-2.55.05Z"/>
  <path class="cls-3" d="M91.74,105.81c10,0,19.54,3.1,27.68,9.01.42.33,1.33,1,1.42,1.07,11.29,8.32,24.68,12.45,38.69,11.93,16.4-.61,31.58-7.57,42.74-19.59s16.98-27.68,16.37-44.07c-.61-16.4-7.57-31.58-19.59-42.74-12.02-11.16-27.69-16.97-44.07-16.37-14.1.52-27.69,5.93-38.27,15.23-8.55,7.9-19.73,12.51-31.44,12.94-6.23.23-12.36-.71-18.23-2.79l-.14-.05c-.5-.21-2.17-.85-2.43-.94-4.8-1.71-9.83-2.58-14.95-2.58-24.55,0-44.53,19.97-44.53,44.53s19.97,44.53,44.53,44.53c7.19,0,14.27-1.7,20.48-4.91h0c6.11-3.16,12.82-4.89,19.93-5.15.6-.02,1.21-.03,1.81-.03Z"/>
  <path class="cls-2" d="M184.28,22.22c-.21,0-.41-.06-.59-.2-13.21-9.75-35.82-9.9-49.36-.32-.45.32-1.07.21-1.39-.24-.32-.45-.21-1.08.24-1.39,14.18-10.03,37.86-9.88,51.7.34.44.33.54.95.21,1.4-.2.27-.5.41-.81.41Z"/>
  <path class="cls-2" d="M185.6,33.11c-.28,0-.56-.12-.75-.34-8.86-10.17-25.28-11.37-33.24-8.31-.52.2-1.09-.06-1.29-.57-.2-.52.06-1.09.57-1.29,8.5-3.27,26.01-1.99,35.46,8.86.36.42.32,1.05-.1,1.41-.19.17-.42.25-.66.25Z"/>
  <path class="cls-2" d="M158.07,119.12c-7.77,0-15.78-1.77-23.41-5.83-.49-.26-.67-.87-.41-1.35s.87-.67,1.35-.41c22.94,12.21,49.51,2.9,60.97-12.73.33-.44.95-.54,1.4-.21.45.33.54.95.21,1.4-8.14,11.1-23.57,19.15-40.12,19.15Z"/>
  <path class="cls-2" d="M160.08,109.45c-4.46,0-8.84-.74-12.54-2.44-.5-.23-.72-.82-.49-1.33.23-.5.83-.72,1.33-.49,10.71,4.91,28.33,1.14,34.18-5.37.37-.41,1-.45,1.41-.08.41.37.45,1,.08,1.41-4.33,4.82-14.33,8.3-23.96,8.3Z"/>
  <path class="cls-2" d="M66.54,106.21c-.31,0-.62-.15-.82-.43-.32-.45-.21-1.08.24-1.39,10.19-7.14,21.38-9.68,33.28-7.54.54.1.9.62.81,1.16-.1.54-.61.9-1.16.81-11.35-2.04-22.05.38-31.78,7.21-.17.12-.38.18-.57.18Z"/>
  <path class="cls-2" d="M26.01,98.48c-.19,0-.38-.05-.54-.16-10.59-6.87-16.66-21.29-14.13-33.54.11-.54.64-.89,1.18-.78.54.11.89.64.78,1.18-2.38,11.49,3.32,25.01,13.26,31.46.46.3.6.92.29,1.38-.19.3-.51.46-.84.46Z"/>
  <g>
    <path class="cls-4" d="M33.76,49.31h3.61l7.63,17.93h-4.1l-1.63-3.99h-7.53l-1.63,3.99h-3.99l7.63-17.93ZM37.89,59.79l-2.37-5.77-2.37,5.77h4.73Z"/>
    <path class="cls-4" d="M45.82,58.39v-.05c0-5.06,3.82-9.21,9.28-9.21,3.36,0,5.37,1.12,7.02,2.75l-2.49,2.87c-1.37-1.25-2.77-2.01-4.55-2.01-3,0-5.16,2.49-5.16,5.55v.05c0,3.05,2.11,5.6,5.16,5.6,2.04,0,3.28-.81,4.68-2.09l2.49,2.52c-1.83,1.96-3.87,3.18-7.3,3.18-5.24,0-9.13-4.04-9.13-9.16Z"/>
    <path class="cls-4" d="M64.08,58.39v-.05c0-5.06,3.82-9.21,9.28-9.21,3.36,0,5.37,1.12,7.02,2.75l-2.49,2.87c-1.37-1.25-2.77-2.01-4.55-2.01-3,0-5.16,2.49-5.16,5.55v.05c0,3.05,2.11,5.6,5.16,5.6,2.04,0,3.28-.81,4.68-2.09l2.49,2.52c-1.83,1.96-3.87,3.18-7.3,3.18-5.24,0-9.13-4.04-9.13-9.16Z"/>
    <path class="cls-4" d="M83.63,49.44h13.43v3.49h-9.54v3.61h8.39v3.49h-8.39v3.74h9.67v3.48h-13.56v-17.81Z"/>
    <path class="cls-4" d="M100.67,49.44h3.92v14.24h8.88v3.56h-12.79v-17.81Z"/>
    <path class="cls-4" d="M116.42,49.44h13.43v3.49h-9.54v3.61h8.39v3.49h-8.39v3.74h9.67v3.48h-13.56v-17.81Z"/>
    <path class="cls-4" d="M133.45,49.44h8.14c2.26,0,4.02.64,5.19,1.81.99.99,1.53,2.39,1.53,4.07v.05c0,2.87-1.55,4.68-3.82,5.52l4.35,6.36h-4.58l-3.82-5.7h-3.08v5.7h-3.92v-17.81ZM141.34,58.09c1.91,0,3-1.02,3-2.52v-.05c0-1.68-1.17-2.54-3.08-2.54h-3.89v5.11h3.97Z"/>
    <path class="cls-4" d="M157.95,49.31h3.61l7.63,17.93h-4.1l-1.63-3.99h-7.53l-1.63,3.99h-3.99l7.63-17.93ZM162.07,59.79l-2.37-5.77-2.37,5.77h4.73Z"/>
    <path class="cls-4" d="M173.79,53.05h-5.42v-3.61h14.75v3.61h-5.42v14.19h-3.92v-14.19Z"/>
    <path class="cls-4" d="M186.12,49.44h13.43v3.49h-9.54v3.61h8.39v3.49h-8.39v3.74h9.67v3.48h-13.56v-17.81Z"/>
  </g>
  <g>
    <path class="cls-1" d="M66.19,73.79h5.08c2.97,0,4.76,1.76,4.76,4.3v.04c0,2.88-2.24,4.37-5.03,4.37h-2.08v3.73h-2.74v-12.43ZM71.1,80.06c1.37,0,2.17-.82,2.17-1.88v-.04c0-1.23-.85-1.88-2.22-1.88h-2.11v3.8h2.17Z"/>
    <path class="cls-1" d="M78.55,81.51v-.04c0-2.72,1.94-4.96,4.71-4.96,3.18,0,4.64,2.47,4.64,5.17,0,.21-.02.46-.04.71h-6.62c.27,1.23,1.12,1.86,2.33,1.86.91,0,1.56-.28,2.31-.98l1.55,1.37c-.89,1.1-2.17,1.78-3.89,1.78-2.86,0-4.97-2.01-4.97-4.92ZM85.27,80.71c-.16-1.21-.87-2.03-2.01-2.03s-1.85.8-2.06,2.03h4.07Z"/>
    <path class="cls-1" d="M90.66,83.48v-.04c0-2.08,1.58-3.04,3.84-3.04.96,0,1.65.16,2.33.39v-.16c0-1.12-.69-1.74-2.04-1.74-1.03,0-1.76.2-2.63.51l-.67-2.06c1.05-.46,2.08-.76,3.69-.76,1.47,0,2.54.39,3.21,1.07.71.71,1.03,1.76,1.03,3.04v5.52h-2.61v-1.03c-.66.73-1.56,1.21-2.88,1.21-1.79,0-3.27-1.03-3.27-2.91ZM96.86,82.86v-.48c-.46-.21-1.07-.36-1.72-.36-1.15,0-1.86.46-1.86,1.31v.04c0,.73.6,1.15,1.47,1.15,1.26,0,2.11-.69,2.11-1.67Z"/>
    <path class="cls-1" d="M103.08,76.7h2.7v1.35c.62-.8,1.42-1.53,2.79-1.53,2.04,0,3.23,1.35,3.23,3.53v6.16h-2.7v-5.31c0-1.28-.6-1.94-1.63-1.94s-1.69.66-1.69,1.94v5.31h-2.7v-9.52Z"/>
    <path class="cls-1" d="M115.4,82.86v-6.16h2.7v5.31c0,1.28.6,1.94,1.63,1.94s1.69-.66,1.69-1.94v-5.31h2.7v9.52h-2.7v-1.35c-.62.8-1.42,1.53-2.79,1.53-2.04,0-3.23-1.35-3.23-3.53Z"/>
    <path class="cls-1" d="M128.31,83.52v-4.51h-1.14v-2.31h1.14v-2.43h2.7v2.43h2.24v2.31h-2.24v4.07c0,.62.27.92.87.92.5,0,.94-.12,1.33-.34v2.17c-.57.34-1.23.55-2.13.55-1.65,0-2.77-.66-2.77-2.86Z"/>
    <path class="cls-4" d="M142.66,84.41l1.62-1.94c1.12.92,2.29,1.51,3.71,1.51,1.12,0,1.79-.44,1.79-1.17v-.04c0-.69-.43-1.05-2.5-1.58-2.5-.64-4.12-1.33-4.12-3.8v-.04c0-2.25,1.81-3.75,4.35-3.75,1.81,0,3.36.57,4.62,1.58l-1.42,2.06c-1.1-.76-2.18-1.23-3.23-1.23s-1.6.48-1.6,1.08v.04c0,.82.53,1.08,2.68,1.63,2.52.66,3.94,1.56,3.94,3.73v.04c0,2.47-1.88,3.85-4.57,3.85-1.88,0-3.78-.66-5.27-1.99Z"/>
    <path class="cls-4" d="M156.28,83.52v-4.51h-1.14v-2.31h1.14v-2.43h2.7v2.43h2.24v2.31h-2.24v4.07c0,.62.27.92.87.92.5,0,.94-.12,1.33-.34v2.17c-.57.34-1.23.55-2.13.55-1.65,0-2.77-.66-2.77-2.86Z"/>
    <path class="cls-4" d="M164.46,82.86v-6.16h2.7v5.31c0,1.28.6,1.94,1.63,1.94s1.69-.66,1.69-1.94v-5.31h2.7v9.52h-2.7v-1.35c-.62.8-1.42,1.53-2.79,1.53-2.04,0-3.23-1.35-3.23-3.53Z"/>
    <path class="cls-4" d="M176.5,81.48v-.04c0-3.18,2.08-4.92,4.33-4.92,1.44,0,2.33.66,2.97,1.42v-4.69h2.7v12.97h-2.7v-1.37c-.66.89-1.56,1.54-2.97,1.54-2.22,0-4.33-1.74-4.33-4.92ZM183.84,81.48v-.04c0-1.58-1.05-2.63-2.31-2.63s-2.33,1.03-2.33,2.63v.04c0,1.58,1.07,2.63,2.33,2.63s2.31-1.05,2.31-2.63Z"/>
    <path class="cls-4" d="M196.5,76.7h2.81l-3.66,9.75c-.73,1.94-1.51,2.67-3.13,2.67-.98,0-1.71-.25-2.4-.66l.91-1.95c.36.21.8.37,1.15.37.46,0,.71-.14.94-.62l-3.73-9.55h2.86l2.17,6.48,2.08-6.48Z"/>
  </g>
</svg>