<svg xmlns="http://www.w3.org/2000/svg" xmlns:svg="http://www.w3.org/2000/svg" xmlns:xlink="http://www.w3.org/1999/xlink" id="svg1396" width="1920" height="1080" version="1.1" viewBox="0 0 508 285.75"><defs id="defs1390"><linearGradient id="linearGradient9287" x1="555.625" x2="1058.333" y1="402.833" y2="138.25" gradientTransform="translate(-582.0833,-89.5663)" gradientUnits="userSpaceOnUse" xlink:href="#linearGradient964"/><linearGradient id="linearGradient964"><stop id="stop960" offset="0" style="stop-color:#f2f2f2;stop-opacity:1"/><stop id="stop962" offset="1" style="stop-color:#f2f2f2;stop-opacity:1"/></linearGradient></defs><metadata id="metadata1393"/><rect style="color:#000;clip-rule:nonzero;display:inline;overflow:visible;visibility:visible;isolation:auto;mix-blend-mode:normal;color-interpolation:sRGB;color-interpolation-filters:linearRGB;solid-color:#000;solid-opacity:1;fill:url(#linearGradient9287);fill-opacity:1;fill-rule:nonzero;stroke:none;stroke-width:.079375;stroke-linecap:round;stroke-linejoin:round;stroke-miterlimit:4;stroke-dasharray:none;stroke-dashoffset:0;stroke-opacity:1;color-rendering:auto;image-rendering:auto;shape-rendering:auto;text-rendering:auto;enable-background:accumulate" id="rect9285" width="508" height="285.75" x="0" y="0"/><path id="path9299" d="m 152.4814,71.683 c -6.2403,0 -11.3972,5.1579 -11.3972,11.3982 v 101.0674 c 0,6.2403 5.1569,11.3971 11.3972,11.3971 h 185.4833 c 6.2403,0 11.3982,-5.1568 11.3982,-11.3971 V 83.0812 c 0,-6.2403 -5.1579,-11.3982 -11.3982,-11.3982 z m 0,8.5481 h 185.4833 c 1.6525,0 2.8501,1.1976 2.8501,2.8501 v 101.0674 c 0,1.6525 -1.1976,2.849 -2.8501,2.849 H 152.4814 c -1.6525,0 -2.849,-1.1965 -2.849,-2.849 V 83.0812 c 0,-1.6525 1.1965,-2.8501 2.849,-2.8501 z" style="color:#000;font-style:normal;font-variant:normal;font-weight:400;font-stretch:normal;font-size:medium;line-height:normal;font-family:sans-serif;font-variant-ligatures:normal;font-variant-position:normal;font-variant-caps:normal;font-variant-numeric:normal;font-variant-alternates:normal;font-feature-settings:normal;text-indent:0;text-align:start;text-decoration:none;text-decoration-line:none;text-decoration-style:solid;text-decoration-color:#000;letter-spacing:normal;word-spacing:normal;text-transform:none;writing-mode:lr-tb;direction:ltr;text-orientation:mixed;dominant-baseline:auto;baseline-shift:baseline;text-anchor:start;white-space:normal;shape-padding:0;clip-rule:nonzero;display:inline;overflow:visible;visibility:visible;isolation:auto;mix-blend-mode:normal;color-interpolation:sRGB;color-interpolation-filters:linearRGB;solid-color:#000;solid-opacity:1;fill:#515865;fill-opacity:1;fill-rule:nonzero;stroke:none;stroke-width:1.00013;stroke-linecap:round;stroke-linejoin:round;stroke-miterlimit:4;stroke-dasharray:none;stroke-dashoffset:0;stroke-opacity:1;color-rendering:auto;image-rendering:auto;shape-rendering:auto;text-rendering:auto;enable-background:accumulate"/><path id="path9301" d="m 145.6321,97.5714 199.4564,-0.1582 v 29.833 L 145.3581,125.907 Z" style="fill:#515865;fill-opacity:1;fill-rule:evenodd;stroke:none;stroke-width:1.00013;stroke-linecap:butt;stroke-linejoin:miter;stroke-dasharray:none;stroke-opacity:1"/><path id="path9303" d="m 352.1098,90.2042 v 8.5482 h 3.4078 c 1.6525,0 2.85,1.1973 2.85,2.8498 v 101.0675 c 0,1.6525 -1.1975,2.8491 -2.85,2.8491 H 170.0343 c -1.6525,0 -2.8491,-1.1966 -2.8491,-2.8491 v -2.8496 h -8.5481 v 2.8496 c 0,6.2403 5.1569,11.3973 11.3972,11.3973 h 185.4833 c 6.2404,0 11.3981,-5.157 11.3981,-11.3973 V 101.6022 c 0,-6.2403 -5.1577,-11.398 -11.3981,-11.398 z" style="color:#000;font-style:normal;font-variant:normal;font-weight:400;font-stretch:normal;font-size:medium;line-height:normal;font-family:sans-serif;font-variant-ligatures:normal;font-variant-position:normal;font-variant-caps:normal;font-variant-numeric:normal;font-variant-alternates:normal;font-feature-settings:normal;text-indent:0;text-align:start;text-decoration:none;text-decoration-line:none;text-decoration-style:solid;text-decoration-color:#000;letter-spacing:normal;word-spacing:normal;text-transform:none;writing-mode:lr-tb;direction:ltr;text-orientation:mixed;dominant-baseline:auto;baseline-shift:baseline;text-anchor:start;white-space:normal;shape-padding:0;clip-rule:nonzero;display:inline;overflow:visible;visibility:visible;isolation:auto;mix-blend-mode:normal;color-interpolation:sRGB;color-interpolation-filters:linearRGB;solid-color:#000;solid-opacity:1;fill:#515865;fill-opacity:1;fill-rule:nonzero;stroke:none;stroke-width:1.00013;stroke-linecap:round;stroke-linejoin:round;stroke-miterlimit:4;stroke-dasharray:none;stroke-dashoffset:0;stroke-opacity:1;color-rendering:auto;image-rendering:auto;shape-rendering:auto;text-rendering:auto;enable-background:accumulate"/><path id="path9305" d="m 159.879,147.1918 h 99.7282" style="fill:none;fill-rule:evenodd;stroke:#59f;stroke-width:1.58750001;stroke-linecap:round;stroke-linejoin:miter;stroke-miterlimit:4;stroke-dasharray:none;stroke-opacity:1"/><path style="fill:none;fill-rule:evenodd;stroke:#59f;stroke-width:1.58750001;stroke-linecap:round;stroke-linejoin:miter;stroke-miterlimit:4;stroke-dasharray:none;stroke-opacity:1" id="path9307" d="m 159.879,161.4388 h 71.8462"/><path style="opacity:.1;fill:#000;fill-rule:evenodd;stroke:none;stroke-width:.264583px;stroke-linecap:butt;stroke-linejoin:miter;stroke-opacity:1" id="path9328" d="m 345.02853,74.170088 h -0.003 c 2.63256,2.097616 4.33719,5.323416 4.33719,8.90905 V 184.14627 c 0,6.24019 -5.15745,11.39719 -11.39775,11.39719 H 152.48153 c -2.83049,0 -5.43631,-1.0631 -7.44088,-2.80485 h -0.003 l 93.00776,93.00792 H 507.99982 V 168.25857 Z"/></svg>